# xmcd
#
# Track frame offsets:
#	150
#	16935
#	37300
#	52465
#	66490
#	83680
#	103215
#	121853
#	137200
#	158570
#	177045
#	193493
#	207303
#
# Disc length: 3045 seconds
#
# Revision: 12
# Processed by: cddbd v1.5.2PL0 Copyright (c) Steve Scherf et al.
# Submitted via: EasyCDDAExtractor 15.3.0.1
#
DISCID=c40be30d
DTITLE=Ana Gabriel - Luna
DYEAR=1993
DGENRE=Latin
TTITLE0=Tu Nombre Es Traicion
TTITLE1=Luna
TTITLE2=Pacto De Amor
TTITLE3=Estas Emociones (Ode E Adao)
TTITLE4=Me Estoy Enamorando
TTITLE5=Somos Dos
TTITLE6=Se Que Te Vas
TTITLE7=Dame Una Oportunidad
TTITLE8=Eres Diferente
TTITLE9=Vaya Fin De Semana
TTITLE10=Hablame De Frente
TTITLE11=Entre Dos (O Bondade) (Abaixo A Forca Bruta)
TTITLE12=Es Diferente (Duo Con Yuri)
EXTD=
EXTT0=
EXTT1=
EXTT2=
EXTT3=
EXTT4=
EXTT5=
EXTT6=
EXTT7=
EXTT8=
EXTT9=
EXTT10=
EXTT11=
EXTT12=
PLAYORDER=
